<?xml version="1.0" encoding="UTF-8" standalone="no"?>
<!-- Created with Inkscape (http://www.inkscape.org/) -->

<svg
   xmlns:dc="http://purl.org/dc/elements/1.1/"
   xmlns:cc="http://creativecommons.org/ns#"
   xmlns:rdf="http://www.w3.org/1999/02/22-rdf-syntax-ns#"
   xmlns:svg="http://www.w3.org/2000/svg"
   xmlns="http://www.w3.org/2000/svg"
   xmlns:sodipodi="http://sodipodi.sourceforge.net/DTD/sodipodi-0.dtd"
   xmlns:inkscape="http://www.inkscape.org/namespaces/inkscape"
   width="100"
   height="100"
   viewBox="0 0 100 100"
   id="svg2"
   version="1.1"
   inkscape:version="0.91 r13725"
   sodipodi:docname="favicon.svg"
   inkscape:export-filename="C:\Users\domay\Documents\GitHub\domayre.github.io\media\favicon.png"
   inkscape:export-xdpi="234"
   inkscape:export-ydpi="234">
  <defs
     id="defs4" />
  <sodipodi:namedview
     id="base"
     pagecolor="#ffffff"
     bordercolor="#666666"
     borderopacity="1.0"
     inkscape:pageopacity="0.0"
     inkscape:pageshadow="2"
     inkscape:zoom="4"
     inkscape:cx="131.20769"
     inkscape:cy="27.581292"
     inkscape:document-units="px"
     inkscape:current-layer="layer1"
     showgrid="false"
     units="px"
     inkscape:window-width="1563"
     inkscape:window-height="979"
     inkscape:window-x="-8"
     inkscape:window-y="-8"
     inkscape:window-maximized="1" />
  <metadata
     id="metadata7">
    <rdf:RDF>
      <cc:Work
         rdf:about="">
        <dc:format>image/svg+xml</dc:format>
        <dc:type
           rdf:resource="http://purl.org/dc/dcmitype/StillImage" />
        <dc:title></dc:title>
      </cc:Work>
    </rdf:RDF>
  </metadata>
  <g
     inkscape:label="Layer 1"
     inkscape:groupmode="layer"
     id="layer1"
     transform="translate(0,-952.36216)">
    <circle
       r="44.420753"
       cy="981.14929"
       cx="-211.13402"
       id="circle4209"
       style="fill:#3c3c3c;fill-opacity:1;stroke:none;stroke-width:4.76190472;stroke-miterlimit:4;stroke-dasharray:none;stroke-opacity:1"
       transform="matrix(0.96592583,-0.25881905,0.25881905,0.96592583,0,0)" />
    <path
       sodipodi:nodetypes="caaaaacccccccaaaaacc"
       inkscape:connector-curvature="0"
       id="path4162"
       d="m 23.646177,985.05031 c 0,0 16.142177,-7.47389 24.796354,-7.73289 5.602806,-0.16766 11.861391,0.64561 16.324073,4.03737 4.982976,3.78717 7.590696,10.31286 9.223269,16.35493 1.659693,6.14248 2.772418,13.23488 0.273183,19.08638 -2.181667,5.1079 -7.288147,8.7578 -12.201668,11.3475 -7.603923,4.008 -25.159321,5.6527 -25.159321,5.6527 l -1.978974,-1.1421 6.925378,-7.4252 -5.98828,-22.3493 4.492514,-12.31546 1.978967,1.14246 8.23887,30.7478 c 0,0 6.609976,-0.7401 9.298787,-2.4916 2.910435,-1.896 5.52346,-4.7939 6.534918,-8.117 1.152347,-3.7858 -0.02852,-7.999 -1.030594,-11.8274 -1.072536,-4.09764 -2.090518,-8.74398 -5.240273,-11.57574 -2.494277,-2.24244 -6.202347,-3.05874 -9.555094,-3.15443 -6.253979,-0.17848 -18.130033,4.85793 -18.130033,4.85793 z"
       style="fill:#be160a;fill-opacity:1;fill-rule:evenodd;stroke:none;stroke-width:1px;stroke-linecap:butt;stroke-linejoin:miter;stroke-opacity:1" />
    <path
       style="fill:#f44336;fill-opacity:1;fill-rule:evenodd;stroke:none;stroke-width:1px;stroke-linecap:butt;stroke-linejoin:miter;stroke-opacity:1"
       d="m 21.667464,983.90791 c 0,0 16.142176,-7.47392 24.796356,-7.7329 5.602804,-0.16768 11.861389,0.64563 16.324068,4.03735 4.982979,3.78719 7.590697,10.31285 9.223225,16.35477 1.659744,6.14267 2.772505,13.23507 0.273271,19.08667 -2.181715,5.1076 -7.288205,8.7575 -12.201741,11.3474 -7.603918,4.0079 -25.159253,5.653 -25.159253,5.653 l 4.946359,-8.5675 -5.988279,-22.3493 6.471462,-11.17321 8.238866,30.74791 c 0,0 6.610026,-0.7402 9.298788,-2.4916 2.910481,-1.896 5.523483,-4.7939 6.534962,-8.1169 1.152299,-3.786 -0.02853,-7.9991 -1.030658,-11.82776 -1.072456,-4.09728 -2.090466,-8.74374 -5.240225,-11.57549 -2.494274,-2.24244 -6.202348,-3.05874 -9.555086,-3.15443 -6.253986,-0.17849 -18.130034,4.85794 -18.130034,4.85794 z"
       id="path4150"
       inkscape:connector-curvature="0"
       sodipodi:nodetypes="caaaaacccccaaaaacc" />
    <circle
       style="fill:none;fill-opacity:1;stroke:#ff9800;stroke-width:4.44207525;stroke-miterlimit:4;stroke-dasharray:none;stroke-opacity:0"
       id="circle4224"
       cx="-211.13402"
       cy="981.14929"
       r="44.420753"
       transform="matrix(0.96592583,-0.25881905,0.25881905,0.96592583,0,0)" />
    <path
       style="color:#000000;font-style:normal;font-variant:normal;font-weight:normal;font-stretch:normal;font-size:medium;line-height:normal;font-family:sans-serif;text-indent:0;text-align:start;text-decoration:none;text-decoration-line:none;text-decoration-style:solid;text-decoration-color:#000000;letter-spacing:normal;word-spacing:normal;text-transform:none;direction:ltr;block-progression:tb;writing-mode:lr-tb;baseline-shift:baseline;text-anchor:start;white-space:normal;clip-rule:nonzero;display:inline;overflow:visible;visibility:visible;opacity:1;isolation:auto;mix-blend-mode:normal;color-interpolation:sRGB;color-interpolation-filters:linearRGB;solid-color:#000000;solid-opacity:1;fill:#f44336;fill-opacity:1;fill-rule:nonzero;stroke:none;stroke-width:4.76190472;stroke-linecap:butt;stroke-linejoin:miter;stroke-miterlimit:4;stroke-dasharray:none;stroke-dashoffset:0;stroke-opacity:1;color-rendering:auto;image-rendering:auto;shape-rendering:auto;text-rendering:auto;enable-background:accumulate"
       d="m 37.928323,957.30963 c -24.856405,6.66026 -39.6409728,32.26786 -32.9807213,57.12427 6.6602773,24.8564 32.2678963,39.641 57.1242833,32.9808 24.856412,-6.6602 39.641005,-32.2679 32.980732,-57.12432 -6.660257,-24.85642 -32.26789,-39.641 -57.124294,-32.98075 z m 1.15012,4.2923 c 22.537527,-6.03891 45.644712,7.30054 51.683626,29.83809 6.038911,22.53758 -7.302285,45.64518 -29.83982,51.68408 -22.537537,6.039 -45.645189,-7.3022 -51.6840999,-29.8398 -6.0389098,-22.53758 7.3027649,-45.64345 29.8402939,-51.68237 z"
       id="circle4226"
       inkscape:connector-curvature="0" />
  </g>
</svg>
