<?xml version="1.0" standalone="no"?>
<!DOCTYPE svg PUBLIC "-//W3C//DTD SVG 20010904//EN"
 "http://www.w3.org/TR/2001/REC-SVG-20010904/DTD/svg10.dtd">
<svg version="1.0" xmlns="http://www.w3.org/2000/svg"
 width="260.000000pt" height="260.000000pt" viewBox="0 0 260.000000 260.000000"
 preserveAspectRatio="xMidYMid meet">
<metadata>
Created by potrace 1.11, written by Peter Selinger 2001-2013
</metadata>
<g transform="translate(0.000000,260.000000) scale(0.100000,-0.100000)"
fill="#000000" stroke="none">
<path d="M1116 2385 c-349 -67 -636 -276 -793 -581 -225 -436 -131 -975 227
-1307 584 -541 1526 -307 1788 443 177 508 -44 1074 -519 1329 -83 45 -154 72
-269 102 -103 27 -326 34 -434 14z m280 -420 c227 -39 360 -169 448 -437 69
-210 86 -403 46 -531 -49 -157 -218 -303 -436 -376 -131 -44 -513 -115 -529
-99 -3 3 21 52 55 109 l60 104 -75 280 c-41 154 -75 287 -75 295 0 27 153 283
160 268 4 -7 49 -168 99 -358 118 -444 107 -410 140 -410 59 0 186 41 237 75
92 64 153 160 161 256 6 66 -5 137 -48 294 -62 226 -124 296 -293 332 -107 22
-222 3 -445 -76 l-109 -38 -106 59 c-58 33 -106 63 -106 66 0 16 326 138 457
171 137 35 227 38 359 16z"/>
</g>
</svg>
