<?xml version="1.0" encoding="UTF-8" standalone="no"?>
<!-- Created with Inkscape (http://www.inkscape.org/) -->

<svg
   xmlns:dc="http://purl.org/dc/elements/1.1/"
   xmlns:cc="http://creativecommons.org/ns#"
   xmlns:rdf="http://www.w3.org/1999/02/22-rdf-syntax-ns#"
   xmlns:svg="http://www.w3.org/2000/svg"
   xmlns="http://www.w3.org/2000/svg"
   xmlns:sodipodi="http://sodipodi.sourceforge.net/DTD/sodipodi-0.dtd"
   xmlns:inkscape="http://www.inkscape.org/namespaces/inkscape"
   width="250"
   height="250"
   viewBox="0 0 250 250"
   id="svg4151"
   version="1.1"
   inkscape:version="0.91 r13725"
   sodipodi:docname="github.svg"
   inkscape:export-filename="C:\Users\domay\Documents\GitHub\domayre.github.io\media\github.png"
   inkscape:export-xdpi="90"
   inkscape:export-ydpi="90">
  <defs
     id="defs4153" />
  <sodipodi:namedview
     id="base"
     pagecolor="#ffffff"
     bordercolor="#666666"
     borderopacity="1.0"
     inkscape:pageopacity="0.0"
     inkscape:pageshadow="2"
     inkscape:zoom="1.4"
     inkscape:cx="123.95063"
     inkscape:cy="215.50551"
     inkscape:document-units="px"
     inkscape:current-layer="layer1"
     showgrid="false"
     units="px"
     inkscape:window-width="1563"
     inkscape:window-height="979"
     inkscape:window-x="-8"
     inkscape:window-y="-8"
     inkscape:window-maximized="1" />
  <metadata
     id="metadata4156">
    <rdf:RDF>
      <cc:Work
         rdf:about="">
        <dc:format>image/svg+xml</dc:format>
        <dc:type
           rdf:resource="http://purl.org/dc/dcmitype/StillImage" />
        <dc:title></dc:title>
      </cc:Work>
    </rdf:RDF>
  </metadata>
  <g
     inkscape:label="Layer 1"
     inkscape:groupmode="layer"
     id="layer1"
     transform="translate(0,-802.36216)">
    <rect
       style="fill:#46505a;fill-opacity:1"
       id="rect4721"
       width="250"
       height="250"
       x="0"
       y="802.36218" />
    <path
       style="fill:#ffffff;fill-opacity:1"
       d="m 107.48027,975.0195 c -9.823056,-3.65169 -18.380943,-10.42126 -24.249152,-19.18202 -1.893495,-2.82679 -4.724906,-8.63916 -5.768201,-11.84105 -3.291776,-10.10256 -3.283736,-20.71712 0.02331,-30.76711 6.181765,-18.78614 22.890733,-32.04363 42.836253,-33.9878 14.70439,-1.43329 29.67157,3.96975 40.22157,14.5197 10.3433,10.34326 15.66829,25.1165 14.22212,39.45676 -0.34322,3.40342 -1.26027,7.80462 -2.25851,10.83925 -1.04075,3.16389 -3.88762,8.98896 -5.75732,11.78025 -5.01259,7.48337 -11.63295,13.26044 -19.65891,17.15492 -5.6971,2.76439 -7.79569,3.23699 -9.00586,2.028 -0.48592,-0.4855 -0.50328,-0.7519 -0.62446,-9.58296 -0.11974,-8.72636 -0.14629,-9.14446 -0.67482,-10.62835 -0.3026,-0.8496 -0.97081,-2.16199 -1.48493,-2.91649 -0.62285,-0.914 -0.8338,-1.401 -0.63221,-1.45919 0.1664,-0.048 1.4254,-0.2688 2.79778,-0.4905 4.83569,-0.7811 9.4785,-2.73039 12.40001,-5.20618 3.25191,-2.75583 5.61562,-7.18398 6.48402,-12.14708 1.37247,-7.84398 0.17929,-14.02906 -3.61986,-18.76429 l -0.92222,-1.14944 0.43357,-1.56357 c 0.59415,-2.14268 0.58064,-5.93702 -0.0302,-8.48477 -0.72257,-3.01374 -0.83999,-3.18883 -2.13849,-3.18883 -2.4219,0 -6.25728,1.39609 -10.07602,3.66771 l -2.52406,1.50145 -1.84509,-0.42502 c -3.74718,-0.86316 -5.64396,-1.05046 -10.63784,-1.05046 -4.99388,0 -6.89066,0.1873 -10.63784,1.05046 l -1.84509,0.42502 -2.52405,-1.50145 c -3.81875,-2.27162 -7.65413,-3.66771 -10.076029,-3.66771 -1.298503,0 -1.415919,0.17509 -2.138499,3.18883 -0.610849,2.54775 -0.62436,6.34209 -0.03021,8.48477 l 0.433565,1.56357 -0.922219,1.14944 c -3.053408,3.80574 -4.464989,8.65048 -4.131252,14.17905 0.533603,8.83961 3.349742,14.50811 9.059434,18.23541 2.71939,1.7753 6.69361,3.19469 10.69245,3.81899 3.08024,0.48089 2.89075,0.3128 1.88999,1.67609 -0.87213,1.18809 -1.99437,3.92898 -2.0038,4.89408 -0.0122,1.25199 -5.69488,2.19249 -8.45441,1.39919 -2.55338,-0.7339 -4.365143,-2.20289 -6.141048,-4.97908 -1.132101,-1.76979 -2.710424,-3.25018 -4.458287,-4.18178 -2.903503,-1.54759 -6.503994,-1.03659 -5.123777,0.7271 0.159226,0.2035 0.880851,0.8044 1.603622,1.33529 2.252863,1.655 3.636598,3.39169 5.099829,6.40087 1.55522,3.19829 2.823262,4.64078 5.081911,5.78088 2.35659,1.18959 4.18394,1.50959 7.75313,1.35749 1.69914,-0.072 3.38343,-0.2027 3.74286,-0.2895 l 0.65352,-0.1578 0,5.03378 c 0,2.99799 -0.099,5.21868 -0.24469,5.49098 -0.32108,0.6 -1.46288,1.17799 -2.29816,1.16349 -0.36593,-0.01 -1.48706,-0.317 -2.49141,-0.69039 z m -0.78116,-14.59154 c -0.62876,-0.4597 -0.30743,-1.10369 0.55074,-1.10369 0.38021,0 0.83401,0.17199 1.00846,0.38219 0.2695,0.3247 0.24917,0.4319 -0.13514,0.7129 -0.56649,0.4142 -0.8669,0.416 -1.42406,0.01 z m 3.67664,-0.3877 c -0.59264,-0.3778 0.027,-1.07249 0.95666,-1.07249 0.90392,0 1.13614,0.3685 0.58165,0.92299 -0.43173,0.4317 -1.0078,0.4877 -1.53831,0.1495 z m -7.83967,-0.3565 c -0.41867,-0.50449 -0.1183,-1.07239 0.56716,-1.07239 0.70888,0 1.36123,0.5964 1.17712,1.07619 -0.17432,0.4543 -1.36626,0.4517 -1.74428,0 z m -3.281975,-1.83289 c -0.156845,-0.1568 -0.285169,-0.5311 -0.285169,-0.83169 0,-0.412 0.134663,-0.5466 0.546574,-0.5466 0.69645,0 1.11692,0.4205 1.11692,1.11689 0,0.4119 -0.13467,0.5466 -0.54658,0.5466 -0.300613,0 -0.6749,-0.1283 -0.831745,-0.2852 z m -2.470125,-3.16708 c -0.208826,-0.4583 -0.20607,-0.6681 0.01164,-0.8858 0.413135,-0.4131 1.085823,0.076 1.179125,0.8568 0.06019,0.50399 -0.0238,0.62959 -0.42097,0.62959 -0.300045,0 -0.604318,-0.2374 -0.769791,-0.60059 z m -1.98137,-2.75029 c -0.241672,-0.7615 0.251774,-1.102 0.833722,-0.5753 0.652315,0.5903 0.608521,1.0745 -0.09719,1.0745 -0.378611,0 -0.632765,-0.1723 -0.736531,-0.4992 z m -2.143983,-1.89799 c -0.08782,-0.1421 -0.03771,-0.3803 0.111339,-0.5293 0.298488,-0.2985 0.986909,0 1.154737,0.5076 0.118724,0.3562 -1.047008,0.3762 -1.266076,0.022 z"
       id="path4723"
       inkscape:connector-curvature="0" />
  </g>
</svg>
